<svg xmlns="http://www.w3.org/2000/svg" xmlns:xlink="http://www.w3.org/1999/xlink" width="145" zoomAndPan="magnify" viewBox="0 0 108.75 137.249994" height="183" preserveAspectRatio="xMidYMid meet" version="1.2"><defs><clipPath id="473ab1a9af"><path d="M 0.171875 0 L 108.332031 0 L 108.332031 136.503906 L 0.171875 136.503906 Z M 0.171875 0 "/></clipPath></defs><g id="39551c4847"><g clip-rule="nonzero" clip-path="url(#473ab1a9af)"><path style=" stroke:none;fill-rule:nonzero;fill:#ffffff;fill-opacity:1;" d="M 0.171875 0 L 108.332031 0 L 108.332031 136.503906 L 0.171875 136.503906 Z M 0.171875 0 "/></g><path style=" stroke:none;fill-rule:nonzero;fill:#000000;fill-opacity:1;" d="M 75.664062 37.828125 C 75.675781 37.847656 75.695312 37.871094 75.714844 37.902344 C 75.695312 37.871094 75.675781 37.847656 75.664062 37.828125 Z M 102.15625 2.007812 C 97.996094 0.00390625 92.996094 1.753906 90.992188 5.917969 L 75.648438 37.800781 C 75.648438 37.800781 75.652344 37.808594 75.664062 37.828125 C 75.652344 37.808594 75.648438 37.800781 75.648438 37.800781 L 67.207031 29.375 C 56.628906 18.8125 39.429688 18.824219 28.863281 29.402344 C 18.300781 39.984375 18.3125 57.183594 28.894531 67.746094 L 54.210938 93.027344 C 57.480469 96.292969 62.777344 96.289062 66.039062 93.019531 C 69.304688 89.75 69.300781 84.453125 66.03125 81.1875 L 40.714844 55.910156 C 36.664062 51.863281 36.660156 45.277344 40.703125 41.222656 C 44.75 37.175781 51.335938 37.167969 55.386719 41.214844 L 72.164062 57.964844 C 74.082031 59.878906 76.808594 60.75 79.480469 60.292969 C 82.152344 59.835938 84.4375 58.117188 85.613281 55.675781 L 95.140625 35.875 L 106.066406 13.171875 C 108.070312 9.011719 106.320312 4.011719 102.15625 2.007812 "/><path style=" stroke:none;fill-rule:nonzero;fill:#000000;fill-opacity:1;" d="M 102.15625 2.007812 C 97.996094 0.00390625 92.996094 1.753906 90.992188 5.917969 L 75.648438 37.800781 C 75.648438 37.800781 82.976562 46.4375 90.039062 41.359375 C 91.667969 40.191406 93.378906 38.429688 95.140625 35.875 L 106.066406 13.171875 C 108.070312 9.011719 106.320312 4.011719 102.15625 2.007812 "/><path style=" stroke:none;fill-rule:nonzero;fill:#8000ff;fill-opacity:1;" d="M 32.617188 97.945312 C 32.605469 97.929688 32.585938 97.902344 32.566406 97.871094 C 32.585938 97.902344 32.605469 97.929688 32.617188 97.945312 Z M 6.125 133.765625 C 10.285156 135.769531 15.285156 134.019531 17.289062 129.855469 L 32.632812 97.972656 C 32.632812 97.972656 32.628906 97.964844 32.617188 97.949219 C 32.628906 97.964844 32.632812 97.972656 32.632812 97.972656 L 41.070312 106.398438 C 51.652344 116.964844 68.851562 116.949219 79.414062 106.371094 C 89.980469 95.792969 89.96875 78.589844 79.386719 68.027344 L 54.070312 42.746094 C 50.800781 39.480469 45.503906 39.484375 42.242188 42.757812 C 38.976562 46.023438 38.980469 51.320312 42.25 54.585938 L 67.566406 79.863281 C 71.617188 83.910156 71.621094 90.5 67.578125 94.550781 C 63.53125 98.601562 56.945312 98.605469 52.894531 94.5625 L 36.117188 77.808594 C 34.199219 75.894531 31.472656 75.027344 28.800781 75.480469 C 26.128906 75.9375 23.84375 77.660156 22.667969 80.101562 L 13.140625 99.898438 L 2.214844 122.601562 C 0.210938 126.765625 1.960938 131.761719 6.125 133.765625 "/><path style=" stroke:none;fill-rule:nonzero;fill:#8000ff;fill-opacity:1;" d="M 6.125 133.765625 C 10.285156 135.769531 15.285156 134.019531 17.289062 129.855469 L 32.632812 97.972656 C 32.632812 97.972656 25.304688 89.335938 18.242188 94.417969 C 16.613281 95.582031 14.902344 97.347656 13.140625 99.898438 L 2.214844 122.601562 C 0.210938 126.765625 1.960938 131.761719 6.125 133.765625 "/><path style=" stroke:none;fill-rule:nonzero;fill:#000000;fill-opacity:1;" d="M 75.664062 37.828125 C 75.675781 37.847656 75.695312 37.871094 75.714844 37.902344 C 75.695312 37.871094 75.675781 37.847656 75.664062 37.828125 Z M 102.15625 2.007812 C 97.996094 0.00390625 92.996094 1.753906 90.992188 5.917969 L 75.648438 37.800781 C 75.648438 37.800781 75.652344 37.808594 75.664062 37.828125 C 75.652344 37.808594 75.648438 37.800781 75.648438 37.800781 L 67.207031 29.375 C 56.628906 18.8125 39.429688 18.824219 28.863281 29.402344 C 18.300781 39.984375 18.3125 57.183594 28.894531 67.746094 L 54.210938 93.027344 C 57.480469 96.292969 62.777344 96.289062 66.039062 93.019531 C 69.304688 89.75 69.300781 84.453125 66.03125 81.1875 L 40.714844 55.910156 C 36.664062 51.863281 36.660156 45.277344 40.703125 41.222656 C 44.75 37.175781 51.335938 37.167969 55.386719 41.214844 L 72.164062 57.964844 C 74.082031 59.878906 76.808594 60.75 79.480469 60.292969 C 82.152344 59.835938 84.4375 58.117188 85.613281 55.675781 L 95.140625 35.875 L 106.066406 13.171875 C 108.070312 9.011719 106.320312 4.011719 102.15625 2.007812 "/><path style=" stroke:none;fill-rule:nonzero;fill:#000000;fill-opacity:1;" d="M 102.15625 2.007812 C 97.996094 0.00390625 92.996094 1.753906 90.992188 5.917969 L 75.648438 37.800781 C 75.648438 37.800781 82.976562 46.4375 90.039062 41.359375 C 91.667969 40.191406 93.378906 38.429688 95.140625 35.875 L 106.066406 13.171875 C 108.070312 9.011719 106.320312 4.011719 102.15625 2.007812 "/><path style=" stroke:none;fill-rule:nonzero;fill:#8000ff;fill-opacity:1;" d="M 32.617188 97.945312 C 32.605469 97.929688 32.585938 97.902344 32.566406 97.871094 C 32.585938 97.902344 32.605469 97.929688 32.617188 97.945312 Z M 6.125 133.765625 C 10.285156 135.769531 15.285156 134.019531 17.289062 129.855469 L 32.632812 97.972656 C 32.632812 97.972656 32.628906 97.964844 32.617188 97.949219 C 32.628906 97.964844 32.632812 97.972656 32.632812 97.972656 L 41.070312 106.398438 C 51.652344 116.964844 68.851562 116.949219 79.414062 106.371094 C 89.980469 95.792969 89.96875 78.589844 79.386719 68.027344 L 54.070312 42.746094 C 50.800781 39.480469 45.503906 39.484375 42.242188 42.757812 C 38.976562 46.023438 38.980469 51.320312 42.25 54.585938 L 67.566406 79.863281 C 71.617188 83.910156 71.621094 90.5 67.578125 94.550781 C 63.53125 98.601562 56.945312 98.605469 52.894531 94.5625 L 36.117188 77.808594 C 34.199219 75.894531 31.472656 75.027344 28.800781 75.480469 C 26.128906 75.9375 23.84375 77.660156 22.667969 80.101562 L 13.140625 99.898438 L 2.214844 122.601562 C 0.210938 126.765625 1.960938 131.761719 6.125 133.765625 "/><path style=" stroke:none;fill-rule:nonzero;fill:#8000ff;fill-opacity:1;" d="M 6.125 133.765625 C 10.285156 135.769531 15.285156 134.019531 17.289062 129.855469 L 32.632812 97.972656 C 32.632812 97.972656 25.304688 89.335938 18.242188 94.417969 C 16.613281 95.582031 14.902344 97.347656 13.140625 99.898438 L 2.214844 122.601562 C 0.210938 126.765625 1.960938 131.761719 6.125 133.765625 "/></g></svg>